<svg width="1147" height="801" viewBox="0 0 1147 801" fill="none" xmlns="http://www.w3.org/2000/svg">
<g clip-path="url(#clip0_506_778)">
<path d="M1023.86 465.01C985.812 383.327 972.805 292.206 986.478 203.14C990.078 180.04 995.918 156.29 1010.91 138.35C1025.3 121.12 1050.26 110.98 1070.94 119.06C1057.37 89.45 1023.18 72.56 990.348 71.73C956.258 70.87 923.428 84.23 893.098 99.83C862.768 115.43 833.448 133.64 800.888 143.82C747.388 160.54 688.978 154.16 635.388 137.73C581.808 121.29 531.768 95.26 480.768 72.02C429.758 48.78 376.598 27.99 320.758 23.11C264.918 18.24 205.508 31 163.518 68.12C121.528 105.24 101.648 169.4 125.248 220.23C139.498 250.93 167.468 274.55 177.288 306.93C189.608 347.58 170.208 390.89 146.878 426.38C123.538 461.87 95.0782 495.96 86.4082 537.54C78.3982 575.92 89.1282 615.56 110.458 648.92C120.376 664.386 132.406 678.391 146.198 690.53C189.288 728.44 244.968 748.68 300.368 763.66C500.638 817.83 716.498 812.95 914.118 749.78C949.108 738.6 984.068 725.35 1013.44 703.3C1032.6 688.92 1049.27 670.28 1059.83 648.95C1065.53 637.594 1069.29 625.366 1070.96 612.77C1077.6 560.68 1046.13 512.56 1023.86 465.01Z" fill="#6459C7"/>
<g opacity="0.17">
<path d="M863.91 196.953C873.551 192.749 853.998 190.302 831.814 189.497C809.63 188.693 782.793 188.737 768.616 186.449C754.905 184.235 755.915 180.3 754.762 176.734C753.609 173.168 748.338 169.512 726.943 168.719C700.282 167.731 656.317 171.533 636.191 169.251C617.41 167.121 628.574 160.439 601.188 160.183C585.549 160.037 565.403 162.24 548.002 162.772C531.665 163.271 519.58 162.237 511.098 160.848C502.617 159.458 496.71 157.696 487.164 156.469C462.104 153.247 413.073 154.33 369.311 158.46C325.549 162.59 288.038 169.358 266.882 176.061C245.727 182.765 239.882 189.365 244.81 194.962C247.957 198.536 256.009 201.878 275.542 203.314C312.078 206 377.126 201.377 414.879 203.821C435.921 205.183 445.256 208.56 463.717 210.408C483.552 212.393 512.587 212.498 541.114 212.451C600.511 212.353 661.428 211.743 723.544 210.624C749.489 210.156 776.674 209.549 804.282 207.321C831.889 205.093 860.048 200.795 865.872 196.766" fill="white"/>
</g>
<path d="M1072.42 122.55C1071.96 121.37 1071.46 120.2 1070.94 119.06C1071.78 119.39 1072.62 119.75 1073.45 120.14L1072.42 122.55Z" fill="#6459C7"/>
<path d="M621.904 265.086C614.234 252.402 605.147 238.858 590.914 234.717C574.432 229.92 557.501 239.449 543.139 248.851C500.19 276.971 458.829 307.445 419.246 340.134L419.289 340.627C450.106 338.501 480.923 336.376 511.74 334.251C534.006 332.716 557.036 330.968 576.712 320.435C584.179 316.439 591.457 311.1 599.918 310.728C610.43 310.265 619.595 317.607 626.798 325.277C669.405 370.648 681.735 440.031 729.536 479.893C699.394 405.558 663.404 333.73 621.904 265.086Z" fill="#F2F2F2"/>
<path d="M883.805 649.915C879.093 643.965 877.168 642.572 872.52 636.567C834.677 587.623 799.108 537.025 765.812 484.775C743.196 449.288 721.702 413.12 701.329 376.27C691.63 358.751 682.197 341.095 673.03 323.301C665.916 309.505 658.961 295.625 652.165 281.664C650.221 277.676 648.333 273.67 646.454 269.654C642.026 260.212 637.68 250.724 633.014 241.41C627.698 230.794 621.225 219.665 611.462 212.533C607.019 209.154 601.706 207.109 596.143 206.638C588.195 206.125 580.861 209.407 573.968 212.991C523.529 239.292 476.308 272.267 433.598 309.789C390.778 347.395 352.504 389.881 319.556 436.38C318.548 437.82 316.165 436.444 317.182 434.996C321.188 429.331 325.274 423.726 329.439 418.183C381.228 349.306 444.728 290.074 517.038 243.197C529.204 235.314 541.598 227.799 554.221 220.655C560.583 217.052 566.973 213.495 573.473 210.158C579.844 206.886 586.609 203.943 593.888 203.833C618.658 203.448 631.484 231.5 640.293 250.376C643.062 256.316 645.864 262.238 648.7 268.142C659.416 290.556 670.545 312.765 682.087 334.77C689.21 348.356 696.489 361.862 703.924 375.289C727.062 417.101 751.655 458.067 777.702 498.186C812.208 551.329 846.439 598.275 885.748 647.971C886.83 649.346 884.896 651.308 883.805 649.915Z" fill="#E4E4E4"/>
<path d="M431.151 295.937C429.712 294.333 428.281 292.729 426.833 291.124C415.411 278.492 403.154 266.006 387.469 258.764C379.99 255.201 371.825 253.309 363.542 253.217C354.98 253.245 346.61 255.491 338.699 258.635C334.958 260.13 331.3 261.825 327.698 263.631C323.582 265.703 319.539 267.913 315.515 270.14C307.96 274.321 300.504 278.684 293.146 283.231C278.506 292.279 264.324 302.018 250.601 312.447C243.487 317.856 236.519 323.442 229.699 329.205C223.355 334.559 217.14 340.056 211.053 345.697C209.751 346.898 207.808 344.955 209.109 343.754C210.713 342.259 212.336 340.774 213.959 339.308C218.542 335.164 223.199 331.1 227.93 327.115C236.556 319.836 245.406 312.839 254.478 306.122C268.587 295.671 283.181 285.929 298.261 276.897C305.797 272.386 313.437 268.065 321.18 263.934C323.518 262.687 325.883 261.468 328.275 260.313C333.704 257.574 339.345 255.278 345.143 253.447C353.356 250.79 362.046 249.936 370.619 250.944C378.897 252.148 386.872 254.907 394.124 259.075C409.525 267.683 421.47 280.994 433.094 293.984C434.268 295.305 432.333 297.257 431.151 295.937Z" fill="#E4E4E4"/>
<path d="M746.71 426.844L783.615 413.346L801.938 406.644C807.906 404.461 813.859 401.977 820.028 400.414C825.389 398.882 831.081 398.955 836.402 400.622C841.146 402.379 845.489 405.071 849.173 408.539C852.936 412.004 856.437 415.743 859.648 419.725C863.637 424.52 867.567 429.364 871.515 434.193C887.809 454.12 903.997 474.134 920.078 494.234C936.159 514.334 952.132 534.519 967.998 554.79C983.903 575.11 999.698 595.515 1015.38 616.006C1017.31 618.516 1019.23 621.027 1021.14 623.54C1022.2 624.928 1024.59 623.559 1023.52 622.152C1007.72 601.455 991.805 580.844 975.783 560.317C959.722 539.741 943.55 519.253 927.267 498.851C910.984 478.45 894.591 458.138 878.088 437.914C873.977 432.875 869.859 427.842 865.734 422.815C862.254 418.574 858.814 414.288 854.997 410.341C847.992 403.096 839.24 396.693 828.763 396.519C822.603 396.417 816.642 398.372 810.919 400.442C804.749 402.674 798.594 404.948 792.433 407.201L755.27 420.794L745.979 424.192C744.33 424.795 745.043 427.454 746.71 426.844Z" fill="#E4E4E4"/>
<path d="M382.612 274.659C363.857 265.02 339.84 266.908 322.606 278.95C355.478 284.621 387.991 292.21 419.977 301.676C406.694 293.892 396.304 281.696 382.612 274.659Z" fill="#F2F2F2"/>
<path d="M322.422 278.917L318.812 281.852C320.033 280.825 321.302 279.862 322.607 278.95C322.545 278.94 322.484 278.928 322.422 278.917Z" fill="#F2F2F2"/>
<path d="M847.783 426.979C844.15 422.557 840.223 417.927 834.789 416.13L829.716 416.33C868.334 484.569 920.49 544.196 982.983 591.551C937.916 536.694 892.85 481.836 847.783 426.979Z" fill="#F2F2F2"/>
<path d="M1059.83 648.95C1049.27 670.28 1032.6 688.92 1013.44 703.3C984.068 725.35 949.108 738.6 914.118 749.78C716.498 812.95 500.638 817.83 300.368 763.66C244.968 748.68 189.288 728.44 146.198 690.53C132.406 678.391 120.376 664.386 110.458 648.92C167.808 617.4 237.318 605.52 303.648 606.97C398.738 609.05 491.608 634.43 585.808 647.56C696.742 663.001 809.381 661.45 919.848 642.96C958.168 636.53 997.828 628.12 1035.34 638.3C1043.96 640.681 1052.21 644.266 1059.83 648.95Z" fill="#5336A2"/>
<path d="M179.318 102C207.485 102 230.318 79.1665 230.318 51C230.318 22.8335 207.485 0 179.318 0C151.152 0 128.318 22.8335 128.318 51C128.318 79.1665 151.152 102 179.318 102Z" fill="#CCCCCC"/>
<path d="M335.468 48.3422C321.971 34.1834 306.296 21.2668 287.739 14.4412C282.57 12.5319 277.21 11.185 271.753 10.4239C271.709 10.4179 271.667 10.4268 271.624 10.4232C271.535 10.4004 271.445 10.3827 271.354 10.3703C263.721 9.39792 255.973 9.86567 248.513 11.7493C244.864 12.6649 241.305 13.9048 237.878 15.4542C234.438 17.1323 231.105 19.0211 227.898 21.1098C221.11 25.173 213.636 27.9611 205.846 29.3366C201.935 30.0406 197.974 30.4293 194.002 30.499C190.555 30.5682 187.304 30.6879 184.038 31.9333C180.549 33.2452 177.415 35.3544 174.886 38.0925C172.358 40.8307 170.504 44.122 169.473 47.7038C169.393 48.0228 169.417 48.3588 169.541 48.6632C169.665 48.9677 169.882 49.225 170.162 49.3978C171.046 50.0306 171.907 50.7485 172.835 51.3122C173.661 51.6901 174.543 51.9307 175.446 52.0243C176.922 52.3357 178.4 52.638 179.879 52.9312C185.33 54.0112 190.803 54.9671 196.299 55.7991C207.419 57.4826 218.6 58.6684 229.841 59.3567C252.359 60.7207 274.955 60.0416 297.351 57.3277C309.938 55.8032 322.439 53.6409 334.806 50.8493C335.057 50.7761 335.284 50.6394 335.466 50.4525C335.648 50.2656 335.779 50.0349 335.845 49.7826C335.912 49.5304 335.912 49.2652 335.846 49.0129C335.78 48.7605 335.65 48.5295 335.468 48.3422Z" fill="#F0F0F0"/>
<path d="M181.739 82.4412C176.57 80.5319 171.21 79.185 165.753 78.4239C165.709 78.4179 165.667 78.4268 165.624 78.4232C165.535 78.4004 165.445 78.3827 165.354 78.3703C157.721 77.3979 149.973 77.8657 142.513 79.7493C138.864 80.6649 135.305 81.9048 131.877 83.4542C128.438 85.1323 125.105 87.0211 121.898 89.1098C115.11 93.173 107.636 95.9611 99.8458 97.3366C95.9352 98.0406 91.9745 98.4294 88.0017 98.4991C84.5546 98.5682 81.3037 98.688 78.0377 99.9333C74.549 101.245 71.4152 103.354 68.8863 106.093C66.3575 108.831 64.5037 112.122 63.4728 115.704C63.3933 116.023 63.4172 116.359 63.5411 116.663C63.665 116.968 63.8825 117.225 64.1621 117.398C65.0456 118.031 65.9069 118.749 66.8351 119.312C67.6608 119.69 68.5428 119.931 69.4461 120.024C70.9219 120.336 72.3995 120.638 73.879 120.931C79.3296 122.011 84.8028 122.967 90.2986 123.799C101.419 125.483 112.6 126.668 123.841 127.357C146.359 128.721 168.955 128.042 191.351 125.328C203.938 123.803 216.439 121.641 228.806 118.849C229.057 118.776 229.284 118.639 229.466 118.453C229.648 118.266 229.779 118.035 229.845 117.783C229.912 117.53 229.912 117.265 229.846 117.013C229.78 116.76 229.65 116.529 229.468 116.342C215.971 102.183 200.296 89.2668 181.739 82.4412Z" fill="#F0F0F0"/>
<path d="M1047.41 588.142L1074.58 567.518L1087.82 580.759L1043.56 611.042L1047.41 588.142Z" fill="#2F2E41"/>
<path d="M1022.08 644.93H929.151L932.41 634.37C952.61 627.057 941.264 611.34 960.478 601.733C1007.47 578.235 1025.67 508.113 1018.79 480.394L1049.59 479.092C1049.59 479.092 1092.12 599.877 1022.08 644.93Z" fill="#F0F0F0"/>
<path d="M1101.41 595.291C1098.63 597.731 1095.08 599.109 1091.38 599.178C1087.69 599.247 1084.09 598.004 1081.22 595.668L1081.16 595.619L1081.16 595.541C1081.13 594.247 1080.92 592.963 1080.56 591.722C1080.54 592.616 1080.41 593.504 1080.17 594.365L1080.09 594.655L1079.89 594.44C1079.71 594.254 1079.53 594.065 1079.37 593.879C1078.4 592.785 1077.6 591.562 1076.97 590.246C1073.96 584.066 1069.61 578.64 1064.23 574.366C1063.27 573.585 1062.37 572.725 1061.56 571.795C1058.1 567.863 1056.16 562.831 1056.07 557.597C1055.99 552.364 1057.77 547.272 1061.1 543.233C1064.43 539.195 1069.09 536.473 1074.24 535.555C1079.4 534.638 1084.71 535.584 1089.22 538.225L1089.36 538.306L1089.29 538.449C1088.77 539.535 1088.08 540.532 1087.24 541.403C1088.39 540.783 1089.45 540.017 1090.4 539.124L1090.5 539.03L1090.61 539.108C1092.1 540.134 1093.45 541.339 1094.64 542.694L1094.77 542.842C1095.68 543.882 1096.8 544.719 1098.05 545.299C1099.31 545.878 1100.67 546.186 1102.05 546.203C1104.31 546.241 1106.53 546.767 1108.56 547.745C1110.59 548.722 1112.39 550.129 1113.82 551.867C1115.26 553.606 1116.3 555.635 1116.88 557.815C1117.46 559.995 1117.56 562.274 1117.17 564.496L1117.15 564.599L1117.05 564.629C1115.3 565.231 1113.44 565.463 1111.6 565.31C1113.14 565.982 1114.78 566.393 1116.46 566.528L1116.67 566.545L1116.61 566.751C1115.73 569.373 1114.18 571.716 1112.1 573.541L1112.04 573.593L1111.98 573.648C1110.43 574.98 1109.17 576.608 1108.26 578.435C1107.35 580.263 1106.81 582.253 1106.68 584.291C1106.58 586.383 1106.06 588.434 1105.15 590.323C1104.25 592.212 1102.97 593.901 1101.41 595.291Z" fill="#5336A2"/>
<path opacity="0.15" d="M1104.25 590.271C1104.22 590.834 1104.16 591.394 1104.07 591.95C1105.59 589.613 1106.47 586.915 1106.61 584.13C1106.63 583.703 1106.68 583.279 1106.74 582.856C1105.26 585.06 1104.4 587.621 1104.25 590.271Z" fill="black"/>
<path opacity="0.15" d="M1109.16 571.291C1110.4 571.828 1111.71 572.197 1113.05 572.389C1113.56 571.845 1114.04 571.265 1114.47 570.653C1112.76 571.224 1110.96 571.441 1109.16 571.291Z" fill="black"/>
<path opacity="0.15" d="M1114.89 566.163C1115.02 567.512 1114.99 568.874 1114.78 570.215C1115.52 569.088 1116.11 567.869 1116.53 566.59L1116.6 566.384L1116.39 566.367C1115.88 566.324 1115.38 566.256 1114.89 566.163Z" fill="black"/>
<path opacity="0.15" d="M1113.44 551.342C1112 549.711 1110.24 548.397 1108.27 547.485C1106.3 546.572 1104.15 546.081 1101.98 546.042C1100.6 546.025 1099.23 545.717 1097.98 545.138C1096.72 544.559 1095.61 543.721 1094.7 542.681L1094.57 542.534C1093.38 541.178 1092.02 539.974 1090.54 538.947L1090.42 538.869L1090.32 538.963C1089.38 539.857 1088.32 540.623 1087.17 541.242C1088 540.371 1088.7 539.374 1089.22 538.288L1089.29 538.145L1089.15 538.065C1086.16 536.311 1082.79 535.291 1079.32 535.087C1075.86 534.883 1072.4 535.502 1069.21 536.891C1066.03 538.281 1063.23 540.403 1061.02 543.084C1058.82 545.765 1057.28 548.93 1056.53 552.319C1057.97 549.786 1059.9 547.565 1062.21 545.784C1064.52 544.003 1067.15 542.698 1069.97 541.943C1072.78 541.188 1075.72 541 1078.61 541.388C1081.49 541.777 1084.28 542.735 1086.79 544.206L1086.93 544.287L1086.86 544.429C1086.33 545.515 1085.64 546.512 1084.81 547.383C1085.95 546.764 1087.01 545.998 1087.96 545.105L1088.06 545.01L1088.18 545.088C1089.66 546.115 1091.01 547.32 1092.21 548.675L1092.33 548.822C1093.24 549.863 1094.36 550.7 1095.62 551.279C1096.87 551.858 1098.24 552.166 1099.62 552.184C1103.23 552.245 1106.71 553.557 1109.47 555.898C1112.22 558.238 1114.08 561.462 1114.72 565.018C1115.48 564.882 1116.24 564.698 1116.98 564.468L1117.08 564.438L1117.1 564.335C1117.5 562.033 1117.39 559.67 1116.75 557.421C1116.12 555.171 1114.99 553.093 1113.44 551.342Z" fill="black"/>
<path d="M1146.32 487.042C1146.32 498.943 1142.1 510.459 1134.4 519.54C1126.71 528.622 1116.05 534.682 1104.31 536.642L1104.06 536.683L1103.87 536.522C1100.67 533.853 1097.14 531.611 1093.36 529.851C1095.48 531.796 1097.35 534 1098.93 536.411L1099.46 537.216L1098.5 537.262C1097.66 537.303 1096.84 537.323 1096.04 537.323C1091.34 537.327 1086.67 536.679 1082.15 535.398C1061.64 529.561 1039.6 528.562 1016.67 532.431C1012.74 533.092 1008.75 533.424 1004.77 533.424C987.914 533.418 971.614 527.413 958.785 516.485C945.956 505.557 937.436 490.419 934.75 473.781C932.065 457.144 935.39 440.094 944.129 425.685C952.868 411.275 966.452 400.447 982.446 395.139L982.934 394.978L983.127 395.453C984.64 399.028 985.58 402.819 985.914 406.686C986.854 402.599 987.257 398.407 987.112 394.215L987.096 393.773L987.526 393.665C993.165 392.26 998.955 391.549 1004.77 391.55L1005.4 391.553C1009.85 391.566 1014.25 390.641 1018.32 388.838C1022.39 387.036 1026.03 384.396 1029.01 381.09C1033.9 375.719 1039.89 371.47 1046.58 368.636C1053.26 365.802 1060.48 364.45 1067.74 364.673C1075 364.896 1082.12 366.689 1088.62 369.928C1095.12 373.167 1100.84 377.776 1105.39 383.437L1105.6 383.699L1105.46 384.006C1102.53 390.481 1099.33 395.198 1095.51 398.647C1100.41 396.348 1104.9 393.251 1108.79 389.485L1109.29 388.998L1109.64 389.602C1114.12 397.29 1116.48 406.03 1116.48 414.93L1116.48 415.183C1116.48 415.273 1116.48 415.363 1116.48 415.453C1116.48 429.066 1121.74 441.968 1130.95 450.892C1135.79 455.59 1139.64 461.209 1142.28 467.416C1144.92 473.624 1146.29 480.297 1146.32 487.042Z" fill="#5336A2"/>
<g opacity="0.15">
<path d="M1084.85 368.219C1083.12 371.096 1080.98 373.713 1078.51 375.991C1082.05 374.331 1085.37 372.254 1088.41 369.804C1087.25 369.23 1086.06 368.701 1084.85 368.219Z" fill="black"/>
<path d="M1113.95 428.235C1116.69 430.889 1119.11 433.843 1121.18 437.043C1118.07 430.272 1116.46 422.905 1116.48 415.453C1116.48 415.363 1116.48 415.273 1116.48 415.183L1116.48 414.93C1116.48 406.03 1114.12 397.29 1109.64 389.602L1109.29 388.998L1108.79 389.485C1106.01 392.164 1102.94 394.508 1099.62 396.468C1100.34 408.457 1105.44 419.762 1113.95 428.235Z" fill="black"/>
<path d="M1099.49 392.273L1099.49 392.526C1099.49 392.616 1099.49 392.706 1099.49 392.796C1099.49 393.289 1099.49 393.782 1099.51 394.273C1101.88 391.088 1103.87 387.643 1105.46 384.006L1105.6 383.699L1105.39 383.437C1102.74 380.136 1099.68 377.18 1096.3 374.639C1098.41 380.279 1099.49 386.252 1099.49 392.273Z" fill="black"/>
<path d="M1130.95 450.892C1128.53 448.539 1126.38 445.924 1124.54 443.095C1127.83 450.116 1129.46 457.804 1129.28 465.558C1129.11 473.312 1127.15 480.92 1123.54 487.787C1119.93 494.653 1114.79 500.592 1108.5 505.137C1102.22 509.683 1094.97 512.711 1087.32 513.985L1087.07 514.026L1086.88 513.866C1083.68 511.197 1080.15 508.954 1076.37 507.194C1078.49 509.139 1080.36 511.343 1081.93 513.754L1082.47 514.559L1081.51 514.606C1080.67 514.646 1079.84 514.666 1079.05 514.666C1074.35 514.67 1069.68 514.023 1065.16 512.741C1044.64 506.904 1022.61 505.906 999.676 509.774C995.743 510.435 991.762 510.767 987.774 510.767C970.391 510.78 953.614 504.383 940.654 492.798C946.403 504.941 955.479 515.204 966.827 522.396C978.176 529.587 991.332 533.411 1004.77 533.424C1008.75 533.424 1012.74 533.092 1016.67 532.431C1039.6 528.563 1061.64 529.561 1082.15 535.398C1086.67 536.679 1091.34 537.327 1096.04 537.323C1096.84 537.323 1097.66 537.303 1098.5 537.263L1099.46 537.216L1098.93 536.411C1097.35 534 1095.48 531.796 1093.36 529.851C1097.14 531.611 1100.67 533.854 1103.87 536.523L1104.06 536.683L1104.31 536.642C1113.5 535.114 1122.08 531.063 1129.1 524.942C1136.12 518.82 1141.29 510.869 1144.06 501.976C1146.82 493.082 1147.06 483.596 1144.74 474.576C1142.43 465.555 1137.65 457.356 1130.95 450.892Z" fill="black"/>
</g>
<path d="M134.035 560.973L97.2233 533.025L79.2803 550.968L139.25 592.007L134.035 560.973Z" fill="#2F2E41"/>
<path d="M168.37 637.93H294.296L289.88 623.619C262.506 613.71 277.882 592.411 251.844 579.391C188.155 547.547 163.499 452.521 172.825 414.957L131.089 413.192C131.089 413.192 73.4507 576.875 168.37 637.93Z" fill="#F0F0F0"/>
<path d="M53.7124 555.754C53.5363 552.993 52.8106 550.295 51.5779 547.819C50.3453 545.342 48.6305 543.137 46.5341 541.331C46.5058 541.307 46.4773 541.281 46.4488 541.257L46.3685 541.186C43.5552 538.714 41.4491 535.539 40.2657 531.985L40.1725 531.706L40.466 531.682C42.7377 531.5 44.9634 530.943 47.0529 530.032C44.5506 530.24 42.0326 529.925 39.6579 529.11L39.5219 529.069L39.4979 528.929C38.9731 525.918 39.1067 522.829 39.8897 519.875C40.6727 516.921 42.0863 514.171 44.0334 511.815C45.9805 509.459 48.4148 507.553 51.1689 506.228C53.9229 504.903 56.9314 504.19 59.9872 504.139C61.8601 504.116 63.7072 503.698 65.408 502.913C67.1087 502.129 68.625 500.994 69.8578 499.584L70.0319 499.384C71.647 497.548 73.4808 495.915 75.4924 494.524L75.646 494.418L75.7816 494.546C77.0659 495.757 78.5028 496.795 80.0557 497.634C78.9262 496.453 77.9896 495.102 77.2805 493.631L77.1837 493.438L77.3702 493.328C83.4936 489.749 90.6911 488.466 97.6741 489.71C104.657 490.953 110.969 494.642 115.481 500.115C119.992 505.588 122.408 512.488 122.295 519.58C122.183 526.672 119.549 533.492 114.867 538.82C113.759 540.08 112.547 541.246 111.245 542.305C103.952 548.096 98.0524 555.45 93.9802 563.825C93.1296 565.608 92.0355 567.265 90.7292 568.747C90.5072 569 90.2707 569.256 90.0264 569.508L89.7436 569.8L89.6381 569.407C89.3136 568.239 89.1369 567.036 89.1121 565.824C88.6184 567.507 88.3451 569.247 88.2991 571L88.2963 571.105L88.2144 571.173C85.178 573.651 81.5126 575.237 77.6274 575.753C73.7421 576.27 69.7897 575.696 66.2114 574.097C62.633 572.498 59.5694 569.936 57.3623 566.697C55.1553 563.458 53.8916 559.669 53.7124 555.754Z" fill="#5336A2"/>
<path opacity="0.15" d="M57.0117 563.859C57.0498 564.621 57.1293 565.38 57.2497 566.134C55.1873 562.967 54.0007 559.31 53.8107 555.536C53.7826 554.958 53.722 554.382 53.6406 553.809C55.6443 556.797 56.8086 560.267 57.0117 563.859Z" fill="black"/>
<path opacity="0.15" d="M50.3525 538.137C48.6719 538.865 46.9018 539.366 45.0888 539.625C44.3904 538.888 43.7458 538.102 43.1602 537.272C45.4739 538.046 47.9212 538.341 50.3525 538.137Z" fill="black"/>
<path opacity="0.15" d="M42.5949 531.188C42.4077 533.017 42.4584 534.862 42.7455 536.679C41.7416 535.152 40.941 533.5 40.3637 531.767L40.2705 531.487L40.564 531.464C41.2451 531.406 41.9229 531.314 42.5949 531.188Z" fill="black"/>
<path opacity="0.15" d="M44.5533 511.103C46.5015 508.892 48.8888 507.112 51.563 505.876C54.2372 504.639 57.1397 503.973 60.0855 503.921C61.9585 503.898 63.8056 503.48 65.5063 502.695C67.2071 501.91 68.7233 500.776 69.9562 499.366L70.1302 499.166C71.7453 497.329 73.5791 495.697 75.5907 494.306L75.7443 494.2L75.8799 494.328C77.1642 495.539 78.6011 496.577 80.1541 497.416C79.0245 496.235 78.0879 494.884 77.3788 493.412L77.282 493.219L77.4685 493.11C81.528 490.734 86.0916 489.352 90.7871 489.075C95.4826 488.799 100.177 489.637 104.487 491.52C108.797 493.404 112.601 496.279 115.588 499.913C118.575 503.546 120.661 507.834 121.675 512.427C119.722 508.995 117.107 505.985 113.981 503.572C110.856 501.158 107.283 499.389 103.469 498.366C99.6545 497.343 95.6753 497.088 91.7617 497.614C87.8481 498.141 84.0779 499.439 80.6696 501.433L80.4831 501.542L80.5799 501.735C81.289 503.207 82.2256 504.558 83.3552 505.738C81.8022 504.899 80.3653 503.861 79.081 502.65L78.9454 502.523L78.7918 502.628C76.7802 504.02 74.9464 505.652 73.3313 507.489L73.1573 507.689C71.9244 509.099 70.4082 510.233 68.7074 511.018C67.0067 511.803 65.1596 512.22 63.2866 512.244C58.3893 512.326 53.6722 514.105 49.9398 517.277C46.2074 520.449 43.6908 524.817 42.8189 529.637C41.7837 529.452 40.7609 529.203 39.7562 528.892L39.6202 528.85L39.5961 528.711C39.0466 525.592 39.2069 522.389 40.0651 519.341C40.9233 516.293 42.4574 513.477 44.5533 511.103Z" fill="black"/>
<path d="M20.8337 374.977C33.3048 362.884 40.4387 345.399 40.4387 326.951C40.4387 326.83 40.4387 326.708 40.4378 326.586L40.4369 326.242C40.4322 314.183 43.6309 302.338 49.7057 291.92L50.1831 291.1L50.8635 291.76C56.1351 296.865 62.2162 301.061 68.8597 304.177C63.6827 299.503 59.3456 293.11 55.3645 284.336L55.175 283.92L55.462 283.564C61.6255 275.893 69.3778 269.647 78.1855 265.258C86.9932 260.868 96.6472 258.439 106.483 258.137C116.32 257.835 126.105 259.667 135.165 263.508C144.226 267.348 152.347 273.106 158.969 280.385C163.008 284.864 167.946 288.442 173.46 290.885C178.974 293.328 184.942 294.581 190.973 294.563L191.826 294.56C199.701 294.558 207.547 295.521 215.189 297.425L215.772 297.572L215.751 298.171C215.555 303.851 216.101 309.533 217.375 315.072C217.826 309.831 219.101 304.693 221.152 299.849L221.412 299.204L222.073 299.423C243.749 306.616 262.156 321.29 274 340.817C285.843 360.345 290.348 383.45 286.709 405.996C283.07 428.542 271.524 449.057 254.138 463.867C236.753 478.676 214.664 486.813 191.826 486.821C186.421 486.822 181.027 486.372 175.697 485.476C144.616 480.233 114.758 481.586 86.9534 489.497C80.8325 491.233 74.5001 492.111 68.1377 492.106C67.0552 492.106 65.9337 492.078 64.8051 492.023L63.4976 491.96L64.2231 490.87C66.3558 487.603 68.89 484.616 71.7662 481.979C66.6477 484.365 61.8601 487.404 57.5234 491.02L57.2629 491.237L56.9263 491.183C44.4772 489.111 32.8484 483.622 23.3376 475.326C13.8268 467.031 6.80816 456.256 3.06481 444.204C-0.678539 432.152 -0.999312 419.296 2.13829 407.072C5.27589 394.848 11.7484 383.737 20.8337 374.977Z" fill="#5336A2"/>
<g opacity="0.15">
<path d="M83.3023 262.942C85.6516 266.841 88.5421 270.387 91.8873 273.474C87.0973 271.225 82.594 268.41 78.4736 265.09C80.0542 264.311 81.6638 263.595 83.3023 262.942Z" fill="black"/>
<path d="M43.861 344.273C40.1552 347.87 36.8684 351.874 34.0635 356.209C38.2847 347.034 40.4599 337.051 40.4382 326.951C40.4382 326.83 40.4382 326.708 40.4373 326.586L40.4365 326.242C40.4318 314.183 43.6304 302.338 49.7052 291.92L50.1827 291.1L50.8631 291.76C54.6199 295.391 58.791 298.568 63.2905 301.223C62.1307 317.812 55.2047 333.274 43.861 344.273Z" fill="black"/>
<path d="M63.4645 295.539L63.4654 295.883C63.4663 296.004 63.4663 296.126 63.4663 296.248C63.4663 296.916 63.4542 297.584 63.4355 298.25C60.2265 293.933 57.5187 289.265 55.3643 284.336L55.1748 283.92L55.4618 283.564C59.0565 279.091 63.1977 275.086 67.7884 271.643C64.93 279.285 63.4655 287.379 63.4645 295.539Z" fill="black"/>
<path d="M20.8337 374.977C24.1116 371.788 27.0244 368.245 29.518 364.411C25.0523 373.926 22.8503 384.345 23.0846 394.852C23.319 405.359 25.9833 415.67 30.8687 424.976C35.7542 434.281 42.7282 442.329 51.2442 448.489C59.7601 454.648 69.5868 458.752 79.954 460.479L80.2907 460.534L80.5511 460.317C84.8879 456.7 89.6754 453.661 94.794 451.276C91.9177 453.912 89.3836 456.899 87.2509 460.166L86.5254 461.257L87.8329 461.32C88.9615 461.374 90.083 461.402 91.1655 461.402C97.5279 461.407 103.86 460.529 109.981 458.793C137.786 450.882 167.644 449.53 198.725 454.772C204.054 455.668 209.449 456.118 214.853 456.118C238.41 456.136 261.146 447.466 278.709 431.767C270.918 448.223 258.619 462.131 243.24 471.876C227.861 481.621 210.032 486.804 191.826 486.821C186.421 486.822 181.027 486.372 175.697 485.476C144.616 480.233 114.758 481.586 86.9534 489.497C80.8325 491.233 74.5001 492.111 68.1377 492.106C67.0552 492.106 65.9337 492.078 64.8051 492.023L63.4976 491.96L64.2231 490.87C66.3558 487.603 68.8899 484.616 71.7662 481.979C66.6476 484.365 61.8601 487.404 57.5233 491.02L57.2629 491.237L56.9263 491.182C44.4772 489.111 32.8484 483.622 23.3376 475.326C13.8268 467.031 6.80816 456.256 3.06481 444.204C-0.678539 432.152 -0.999312 419.296 2.13829 407.072C5.27588 394.848 11.7484 383.737 20.8337 374.977Z" fill="black"/>
</g>
<path d="M460.318 190C463.08 190 465.318 187.761 465.318 185C465.318 182.239 463.08 180 460.318 180C457.557 180 455.318 182.239 455.318 185C455.318 187.761 457.557 190 460.318 190Z" fill="white"/>
<path d="M834.318 308C835.975 308 837.318 306.657 837.318 305C837.318 303.343 835.975 302 834.318 302C832.662 302 831.318 303.343 831.318 305C831.318 306.657 832.662 308 834.318 308Z" fill="white"/>
<path d="M892.318 173C893.975 173 895.318 171.657 895.318 170C895.318 168.343 893.975 167 892.318 167C890.662 167 889.318 168.343 889.318 170C889.318 171.657 890.662 173 892.318 173Z" fill="white"/>
<path d="M355.318 83C356.975 83 358.318 81.6569 358.318 80C358.318 78.3431 356.975 77 355.318 77C353.662 77 352.318 78.3431 352.318 80C352.318 81.6569 353.662 83 355.318 83Z" fill="white"/>
<path d="M325.318 204C326.975 204 328.318 202.657 328.318 201C328.318 199.343 326.975 198 325.318 198C323.662 198 322.318 199.343 322.318 201C322.318 202.657 323.662 204 325.318 204Z" fill="white"/>
<path d="M179.318 173C180.975 173 182.318 171.657 182.318 170C182.318 168.343 180.975 167 179.318 167C177.662 167 176.318 168.343 176.318 170C176.318 171.657 177.662 173 179.318 173Z" fill="white"/>
<path d="M696.318 198C697.975 198 699.318 196.657 699.318 195C699.318 193.343 697.975 192 696.318 192C694.662 192 693.318 193.343 693.318 195C693.318 196.657 694.662 198 696.318 198Z" fill="white"/>
<path d="M1003.32 101C1004.98 101 1006.32 99.6569 1006.32 98C1006.32 96.3431 1004.98 95 1003.32 95C1001.66 95 1000.32 96.3431 1000.32 98C1000.32 99.6569 1001.66 101 1003.32 101Z" fill="white"/>
<path d="M302.118 364.065C298.319 357.03 297.788 347.81 302.454 341.316C304.761 349.7 309.959 356.996 317.129 361.916C319.901 363.803 323.18 365.613 324.128 368.83C324.627 370.88 324.32 373.044 323.27 374.874C322.221 376.681 320.946 378.346 319.475 379.829L319.34 380.332C312.462 376.256 305.918 371.1 302.118 364.065Z" fill="#5336A2"/>
<path d="M884.118 563.065C880.319 556.03 879.788 546.81 884.454 540.316C886.761 548.7 891.959 555.996 899.129 560.916C901.901 562.803 905.18 564.613 906.128 567.83C906.627 569.88 906.32 572.044 905.27 573.874C904.221 575.681 902.946 577.346 901.475 578.829L901.34 579.332C894.462 575.256 887.918 570.1 884.118 563.065Z" fill="#5336A2"/>
<path d="M565.118 400.065C561.319 393.03 560.788 383.81 565.454 377.316C567.761 385.7 572.959 392.996 580.129 397.916C582.901 399.803 586.18 401.613 587.128 404.83C587.627 406.88 587.32 409.044 586.27 410.874C585.221 412.681 583.946 414.346 582.475 415.829L582.34 416.332C575.462 412.256 568.918 407.1 565.118 400.065Z" fill="#5336A2"/>
<path d="M261.118 516.065C257.319 509.03 256.788 499.81 261.454 493.316C263.761 501.7 268.959 508.996 276.129 513.916C278.901 515.803 282.18 517.613 283.128 520.83C283.627 522.88 283.32 525.044 282.27 526.874C281.221 528.681 279.946 530.346 278.475 531.829L278.34 532.332C271.462 528.256 264.918 523.1 261.118 516.065Z" fill="#5336A2"/>
<path d="M223.118 602.065C219.319 595.03 218.788 585.81 223.454 579.316C225.761 587.7 230.959 594.996 238.129 599.916C240.901 601.803 244.18 603.613 245.128 606.83C245.627 608.88 245.32 611.044 244.27 612.874C243.221 614.681 241.946 616.346 240.475 617.829L240.34 618.332C233.462 614.256 226.918 609.1 223.118 602.065Z" fill="#5336A2"/>
<path d="M854.318 68H843.318V657H854.318V68Z" fill="#5336A2"/>
<path d="M849.318 20H849.318C829.436 20 813.318 36.1177 813.318 56V56C813.318 75.8823 829.436 92 849.318 92H849.318C869.201 92 885.318 75.8823 885.318 56V56C885.318 36.1177 869.201 20 849.318 20Z" fill="#DFC9E9"/>
<path d="M391.802 374.64C391.802 386.118 404.318 396.319 415.795 396.319C427.273 396.319 433.366 386.118 433.366 374.64C433.366 369.129 431.177 363.843 427.279 359.945C423.382 356.048 418.096 353.858 412.584 353.858C407.072 353.858 401.786 356.048 397.889 359.945C393.991 363.843 391.802 369.129 391.802 374.64Z" fill="#2F2E41"/>
<path d="M398.471 484.489L437.067 483.005L439.294 442.925H394.76L398.471 484.489Z" fill="#FFB8B8"/>
<path d="M373.972 511.995C374.642 511.388 375.171 510.642 375.522 509.809C375.873 508.976 376.036 508.076 376.001 507.173C375.967 506.27 375.734 505.385 375.321 504.582C374.907 503.778 374.322 503.075 373.607 502.522L380.615 481.699L369.577 484.616L364.615 503.943C363.765 505.205 363.408 506.735 363.611 508.243C363.814 509.751 364.564 511.132 365.717 512.125C366.871 513.117 368.348 513.652 369.869 513.628C371.391 513.604 372.851 513.023 373.972 511.995Z" fill="#FFB6B6"/>
<path d="M415.759 396.323C423.876 396.323 430.457 389.742 430.457 381.625C430.457 373.507 423.876 366.927 415.759 366.927C407.641 366.927 401.061 373.507 401.061 381.625C401.061 389.742 407.641 396.323 415.759 396.323Z" fill="#FFB8B8"/>
<path d="M416.12 380.146L405.388 379.861C405.124 379.854 404.867 379.777 404.642 379.639C404.417 379.501 404.233 379.306 404.107 379.074L400.52 372.419C400.352 372.108 400.299 371.747 400.372 371.401C400.444 371.055 400.637 370.745 400.915 370.527L414.958 359.549C415.133 359.412 415.337 359.315 415.554 359.267C415.772 359.218 415.997 359.219 416.214 359.268L427.556 361.853C427.817 361.912 428.057 362.04 428.251 362.223C428.446 362.407 428.588 362.639 428.662 362.896L433.104 378.191C433.17 378.42 433.181 378.662 433.135 378.897C433.09 379.131 432.989 379.351 432.84 379.539C432.692 379.726 432.501 379.875 432.284 379.974C432.066 380.073 431.828 380.118 431.59 380.107L426.03 379.829C425.728 379.812 425.438 379.706 425.198 379.522C424.958 379.339 424.778 379.088 424.682 378.801L424.452 378.103C424.439 378.064 424.412 378.03 424.377 378.009C424.342 377.988 424.3 377.98 424.259 377.986C424.219 377.993 424.182 378.013 424.155 378.045C424.128 378.076 424.114 378.116 424.114 378.157C424.114 378.36 424.072 378.561 423.992 378.748C423.912 378.935 423.795 379.103 423.648 379.243C423.501 379.383 423.327 379.492 423.136 379.563C422.946 379.633 422.743 379.665 422.54 379.655L420.699 379.563C420.365 379.547 420.046 379.419 419.793 379.201C419.54 378.983 419.368 378.686 419.303 378.358L418.509 374.365C418.501 374.325 418.479 374.288 418.447 374.263C418.414 374.237 418.374 374.224 418.333 374.226C418.291 374.228 418.252 374.244 418.222 374.272C418.192 374.3 418.172 374.338 418.168 374.379L417.649 378.821C417.608 379.186 417.433 379.524 417.159 379.768C416.884 380.013 416.529 380.147 416.162 380.146L416.12 380.146Z" fill="#2F2E41"/>
<path d="M405.411 400.083L424.414 400.336L430.599 408.189L440.556 410.537L443.144 425.492C444.437 432.968 443.064 437.703 439.263 444.269L438.808 457.187L439.311 458.101C439.559 458.553 439.632 459.081 439.516 459.583C439.399 460.086 439.102 460.527 438.679 460.824C439.035 461.722 439.077 462.714 438.797 463.639L438.552 464.449C438.552 464.449 437.844 470.112 397.719 464.156C396.868 464.03 396.082 463.63 395.478 463.017C394.875 462.404 394.488 461.611 394.376 460.758C393.94 460.319 393.652 459.755 393.554 459.144C393.456 458.533 393.552 457.907 393.829 457.354L393.911 457.19L393.499 456.705C393.04 456.165 392.775 455.487 392.746 454.779C392.717 454.072 392.925 453.374 393.338 452.798L387.571 411.546L399.483 407.836L405.411 400.083Z" fill="#2F2E41"/>
<path d="M392.328 415.495L387.571 411.546C387.571 411.546 383.341 412.797 380.387 421.127C377.434 429.458 367.298 492.654 367.298 492.654L379.173 486.716L396.013 440.285L392.328 415.495Z" fill="#2F2E41"/>
<path d="M497.978 482.776C497.084 482.909 496.172 482.845 495.306 482.587C494.439 482.33 493.64 481.885 492.964 481.286C492.288 480.686 491.752 479.945 491.393 479.116C491.034 478.286 490.861 477.388 490.887 476.484L470.346 468.692L479.603 462.01L497.69 470.434C499.205 470.578 500.614 471.273 501.651 472.387C502.688 473.5 503.28 474.956 503.316 476.477C503.352 477.998 502.828 479.48 501.844 480.641C500.86 481.802 499.485 482.561 497.978 482.776Z" fill="#FFB6B6"/>
<path d="M435.04 415.134L438.265 409.86C438.265 409.86 442.671 409.676 448.16 416.604C450.974 420.155 469.209 450.621 469.209 450.621L486.072 464.676L472.266 469.607L455.994 462.704L437.75 432.626L435.04 415.134Z" fill="#2F2E41"/>
<path d="M435.555 666.81H444.739L449.108 631.385L435.553 631.386L435.555 666.81Z" fill="#FFB6B6"/>
<path d="M355.157 661.099L364.044 663.415L377.208 630.238L364.091 626.819L355.157 661.099Z" fill="#FFB6B6"/>
<path d="M433.277 662.279L447.795 661.413V667.633L461.598 677.166C462.28 677.637 462.793 678.313 463.064 679.096C463.334 679.879 463.346 680.729 463.1 681.52C462.853 682.311 462.36 683.002 461.693 683.493C461.026 683.984 460.219 684.249 459.39 684.249H442.106L439.127 678.096L437.963 684.249H431.446L433.277 662.279Z" fill="#2F2E41"/>
<path d="M353.29 655.93L367.558 658.754L365.989 664.773L376.941 677.479C377.482 678.107 377.808 678.891 377.872 679.717C377.936 680.543 377.734 681.368 377.296 682.071C376.858 682.774 376.207 683.319 375.437 683.626C374.667 683.932 373.82 683.985 373.018 683.776L356.292 679.416L354.961 672.711L352.284 678.371L345.978 676.728L353.29 655.93Z" fill="#2F2E41"/>
<path d="M356.284 638.821L383.205 583.491L385.318 518C379.492 507.179 396.65 483.307 396.65 483.307V474.062L438.569 481.97C447.143 505.355 451.3 530.128 450.83 555.03L449.141 644.549H449.671C450.107 644.548 450.539 644.634 450.942 644.8C451.345 644.966 451.711 645.21 452.019 645.518C452.328 645.826 452.572 646.192 452.739 646.594C452.906 646.997 452.992 647.429 452.992 647.865C452.992 648.3 452.906 648.732 452.739 649.135C452.572 649.537 452.328 649.903 452.019 650.211C451.711 650.519 451.345 650.763 450.942 650.929C450.539 651.095 450.107 651.181 449.671 651.18H433.095C432.659 651.181 432.227 651.095 431.824 650.929C431.421 650.763 431.055 650.519 430.747 650.211C430.438 649.903 430.194 649.537 430.027 649.135C429.86 648.732 429.774 648.3 429.774 647.865C429.774 647.429 429.86 646.997 430.027 646.594C430.194 646.192 430.438 645.826 430.747 645.518C431.055 645.21 431.421 644.966 431.824 644.8C432.227 644.634 432.659 644.548 433.095 644.549H433.522L421.622 530.665L407.786 586.864L374.348 638.609C375.201 638.675 375.995 639.069 376.563 639.709C377.132 640.348 377.43 641.183 377.396 642.038C377.361 642.893 376.997 643.701 376.379 644.293C375.762 644.885 374.939 645.214 374.083 645.212H357.507C356.736 645.213 355.989 644.945 355.394 644.454C354.8 643.963 354.395 643.28 354.25 642.523C354.106 641.765 354.229 640.981 354.601 640.306C354.972 639.63 355.567 639.105 356.284 638.821Z" fill="#2F2E41"/>
<path d="M355.918 376.798C362.112 370.739 366.01 362.771 371.14 355.787C376.27 348.804 383.495 342.405 392.151 342.017C395.034 341.802 397.906 342.551 400.317 344.146C401.504 344.957 402.46 346.062 403.092 347.354C403.724 348.645 404.01 350.078 403.921 351.513C404.835 348.947 408.919 348.368 410.509 350.58C412.1 352.792 410.252 356.479 407.528 356.528L407.261 355.472C405.916 357.499 404.179 359.236 402.152 360.582C400.125 361.927 397.85 362.854 395.46 363.308C394.953 363.398 394.432 363.356 393.946 363.185C393.461 363.014 393.028 362.72 392.69 362.331C392.352 361.943 392.12 361.474 392.018 360.97C391.915 360.465 391.945 359.943 392.104 359.454C382.75 361.308 385.72 378.754 380.159 386.502C374.599 394.249 358.707 393.497 349.33 395.237C340.276 396.917 331.472 391.89 323.631 387.059C329.439 387.942 335.372 387.475 340.971 385.696C346.57 383.916 351.685 380.872 355.918 376.798Z" fill="#2F2E41"/>
<path d="M705.849 587.405L677.632 574.957V564.254L687.688 564.198C689.248 564.189 690.767 563.692 692.03 562.776C693.293 561.86 694.238 560.571 694.732 559.091L701.796 537.898C702.17 536.775 702.272 535.579 702.094 534.409C701.915 533.239 701.461 532.128 700.769 531.168C700.077 530.208 699.167 529.426 698.114 528.887C697.06 528.348 695.893 528.066 694.71 528.066H677.632V518.107H699.072C700.762 518.107 702.402 517.534 703.724 516.482C705.046 515.429 705.972 513.959 706.351 512.312L711.216 491.149C711.468 490.054 711.469 488.917 711.221 487.822C710.972 486.727 710.48 485.701 709.78 484.823C709.081 483.944 708.192 483.235 707.18 482.747C706.168 482.259 705.06 482.006 703.937 482.006H677.632V479.516C677.632 478.196 677.107 476.929 676.173 475.995C675.239 475.061 673.973 474.537 672.652 474.537C671.331 474.537 670.065 475.061 669.131 475.995C668.197 476.929 667.672 478.196 667.672 479.516V482.006H491.315V479.516C491.315 478.196 490.791 476.929 489.857 475.995C488.923 475.061 487.656 474.537 486.336 474.537C485.015 474.537 483.749 475.061 482.815 475.995C481.881 476.929 481.356 478.196 481.356 479.516V482.006H460.446C459.322 482.006 458.214 482.259 457.202 482.747C456.19 483.235 455.302 483.944 454.602 484.823C453.903 485.701 453.41 486.727 453.162 487.822C452.913 488.917 452.915 490.054 453.166 491.149L458.031 512.312C458.41 513.959 459.336 515.429 460.658 516.482C461.98 517.534 463.62 518.107 465.311 518.107H481.356V528.066H469.672C468.495 528.066 467.334 528.345 466.285 528.878C465.236 529.412 464.328 530.186 463.635 531.138C462.942 532.09 462.483 533.191 462.297 534.354C462.111 535.516 462.202 536.706 462.563 537.826L469.773 560.204C470.26 561.715 471.216 563.031 472.502 563.962C473.788 564.894 475.337 565.391 476.924 565.382L481.356 565.357V574.957L458.534 587.405C457.553 587.405 456.582 587.599 455.675 587.974C454.769 588.349 453.946 588.9 453.252 589.593C452.559 590.287 452.008 591.11 451.633 592.016C451.258 592.923 451.064 593.894 451.064 594.875C451.064 596.856 451.851 598.755 453.252 600.156C454.653 601.557 456.553 602.344 458.534 602.344H481.356V657.118C481.356 658.439 481.881 659.706 482.815 660.639C483.749 661.573 485.015 662.098 486.336 662.098C487.656 662.098 488.923 661.573 489.857 660.639C490.791 659.706 491.315 658.439 491.315 657.118V602.344H667.672V657.118C667.672 658.439 668.197 659.706 669.131 660.639C670.065 661.573 671.331 662.098 672.652 662.098C673.973 662.098 675.239 661.573 676.173 660.639C677.107 659.706 677.632 658.439 677.632 657.118V602.344H705.849C707.83 602.344 709.729 601.557 711.13 600.156C712.531 598.755 713.318 596.856 713.318 594.875C713.318 593.894 713.125 592.923 712.749 592.016C712.374 591.11 711.824 590.287 711.13 589.593C710.437 588.9 709.613 588.349 708.707 587.974C707.801 587.599 706.829 587.405 705.849 587.405ZM491.315 518.107H667.672V528.066H491.315V518.107ZM491.315 574.957V565.301L667.672 564.31V574.957L491.315 574.957Z" fill="#F0F0F0"/>
</g>
<defs>
<clipPath id="clip0_506_778">
<rect width="1146.32" height="801.004" fill="white"/>
</clipPath>
</defs>
</svg>
