<svg width="317" height="70" viewBox="0 0 317 70" fill="none" xmlns="http://www.w3.org/2000/svg">
<mask id="mask0_324_90" style="mask-type:luminance" maskUnits="userSpaceOnUse" x="4" y="57" width="313" height="13">
<path d="M4.91809 57.4829H316.225V69.8162H4.91809V57.4829Z" fill="white"/>
</mask>
<g mask="url(#mask0_324_90)">
<path fill-rule="evenodd" clip-rule="evenodd" d="M59.9072 63.4587C86.4421 61.5762 129.244 59.6562 175.065 58.5773C224.124 57.4203 276.632 57.2077 316.191 58.9463L314.73 67.2675C275.756 64.9441 223.901 64.3656 175.398 64.7534C108.468 65.2943 47.9605 67.599 36.8848 69.8161L33.9396 66.1543L45.2847 63.2336L5.74888 66.2419L4.98108 63.7433L65.1271 58.2084L67.0179 61.4918L59.9072 63.4587Z" fill="#6459C7"/>
</g>
<path d="M73.1673 8.14446C73.209 8.73821 73.7611 8.61321 74.1882 8.65487C74.5736 8.69654 74.7455 8.44133 74.7871 8.05592C74.8705 7.37362 74.5736 6.86321 73.7194 6.43612C71.2871 5.24342 68.6882 4.983 66.0423 5.58196C61.7298 6.56633 57.9329 8.57154 54.3496 11.1288C47.1829 16.2903 40.959 22.4778 35.3705 29.3007C28.2871 38.0455 22.1882 47.4309 16.2559 56.9882C15.7871 57.7122 15.36 58.5247 14.8913 59.2903C14.8496 59.2903 14.808 59.2486 14.7611 59.207C14.8496 58.9517 14.8913 58.6965 14.9746 58.4361C17.4069 50.1184 20.4382 42.0559 23.5527 33.9518C25.8965 27.9361 28.0736 21.8372 29.0111 15.3945C29.4382 12.3632 29.6517 9.33717 29.0527 6.30592C28.0319 0.889249 23.4225 -1.4545 18.433 0.930915C16.3861 1.91529 14.6361 3.32154 13.058 4.94133C10.3705 7.67571 8.40691 10.8736 6.61524 14.2017C3.32878 20.259 0.854825 26.6132 0.130867 33.5247C-0.212884 36.6809 0.0891999 39.884 1.41212 42.8684C2.34962 44.957 3.84441 46.4101 6.18816 46.7486C9.81316 47.2174 12.7142 45.8111 15.0215 43.082C15.2767 42.7799 15.4434 42.3997 15.5319 42.0142C15.5736 41.8424 15.7038 41.6288 15.4434 41.5038C15.1882 41.332 14.933 41.332 14.6777 41.5455C14.5944 41.6288 14.5475 41.7174 14.4642 41.8007C12.8861 43.5924 11.0111 44.9153 8.70378 45.6392C6.69857 46.2382 5.16733 45.7278 3.92774 44.0195C3.67253 43.5924 3.41733 43.1653 3.20378 42.6965C1.70899 39.582 1.57878 36.2122 1.88087 32.8424C2.26628 28.832 3.45899 24.9517 4.95378 21.2382C7.2142 15.6913 10.1152 10.5715 14.209 6.13925C16.1309 4.0455 18.3444 2.38404 21.0788 1.44654C22.6986 0.847581 23.808 1.233 24.8288 2.63925C25.558 3.70696 26.0267 4.89967 26.1986 6.18092C26.834 9.80592 26.5371 13.4309 25.8965 17.0142C25.0423 21.6653 23.5944 26.1861 22.058 30.707C20.183 36.1288 18.0059 41.4622 16.4694 46.9622C15.1465 51.6549 13.61 56.2642 12.5475 60.9986C12.3757 61.8111 12.2038 62.6184 12.334 63.4309C12.4173 64.0247 13.2715 64.4518 13.61 64.0715C13.9121 63.6861 14.3392 63.4726 14.5944 63.0455C17.0267 58.6497 19.6257 54.384 22.4434 50.207C27.0944 43.1653 31.7871 36.1288 37.2455 29.6445C42.7507 23.1601 48.7194 17.1861 55.6309 12.2382C58.959 9.84758 62.5007 7.84237 66.4694 6.82154C68.3027 6.30591 70.1361 6.22258 71.9277 6.86321C72.5267 7.07675 73.0371 7.37362 73.1673 8.14446Z" fill="#6459C7"/>
<path d="M67.8122 44.3161L67.7705 32.0661L61.708 42.2744H60.6038L54.5413 32.1494V44.3161H52.2288V27.5244H54.1872L61.208 39.3161L68.1247 27.5244H70.083L70.1038 44.3161H67.8122Z" fill="#6459C7"/>
<path d="M85.6183 38.5036V44.3161H83.2433V38.4619L76.5558 27.5244H79.1391L84.5141 36.3786L89.91 27.5244H92.285L85.6183 38.5036Z" fill="#6459C7"/>
<path d="M106.324 44.5037C104.626 44.5037 103.1 44.1391 101.741 43.3995C100.376 42.6495 99.3084 41.6235 98.5324 40.3162C97.7511 38.9985 97.3657 37.5349 97.3657 35.9203C97.3657 34.2953 97.7511 32.8318 98.5324 31.5245C99.3084 30.2224 100.376 29.1912 101.741 28.4412C103.1 27.6912 104.626 27.3162 106.324 27.3162C108.001 27.3162 109.522 27.6912 110.887 28.4412C112.246 29.1912 113.308 30.2224 114.074 31.5245C114.834 32.8162 115.22 34.2849 115.22 35.9203C115.22 37.5453 114.834 39.0141 114.074 40.3162C113.308 41.6235 112.246 42.6495 110.887 43.3995C109.522 44.1391 108.001 44.5037 106.324 44.5037ZM106.324 42.3787C107.558 42.3787 108.663 42.1026 109.637 41.5453C110.621 40.9776 111.397 40.2016 111.97 39.212C112.538 38.2276 112.824 37.1287 112.824 35.9203C112.824 34.7016 112.538 33.6026 111.97 32.6287C111.397 31.6443 110.621 30.8735 109.637 30.3162C108.663 29.7485 107.558 29.462 106.324 29.462C105.084 29.462 103.97 29.7485 102.97 30.3162C101.97 30.8735 101.183 31.6443 100.616 32.6287C100.043 33.6026 99.7616 34.7016 99.7616 35.9203C99.7616 37.1287 100.043 38.2276 100.616 39.212C101.183 40.2016 101.97 40.9776 102.97 41.5453C103.97 42.1026 105.084 42.3787 106.324 42.3787Z" fill="#6459C7"/>
<path d="M149.004 44.3161L148.962 32.0661L142.9 42.2744H141.796L135.733 32.1494V44.3161H133.421V27.5244H135.379L142.4 39.3161L149.316 27.5244H151.275L151.296 44.3161H149.004Z" fill="#6459C7"/>
<path d="M166.81 38.5036V44.3161H164.435V38.4619L157.748 27.5244H160.331L165.706 36.3786L171.102 27.5244H173.477L166.81 38.5036Z" fill="#6459C7"/>
<path d="M187.516 44.5037C185.818 44.5037 184.292 44.1391 182.933 43.3995C181.568 42.6495 180.5 41.6235 179.724 40.3162C178.943 38.9985 178.558 37.5349 178.558 35.9203C178.558 34.2953 178.943 32.8318 179.724 31.5245C180.5 30.2224 181.568 29.1912 182.933 28.4412C184.292 27.6912 185.818 27.3162 187.516 27.3162C189.193 27.3162 190.714 27.6912 192.078 28.4412C193.438 29.1912 194.5 30.2224 195.266 31.5245C196.026 32.8162 196.412 34.2849 196.412 35.9203C196.412 37.5453 196.026 39.0141 195.266 40.3162C194.5 41.6235 193.438 42.6495 192.078 43.3995C190.714 44.1391 189.193 44.5037 187.516 44.5037ZM187.516 42.3787C188.75 42.3787 189.854 42.1026 190.828 41.5453C191.813 40.9776 192.589 40.2016 193.162 39.212C193.729 38.2276 194.016 37.1287 194.016 35.9203C194.016 34.7016 193.729 33.6026 193.162 32.6287C192.589 31.6443 191.813 30.8735 190.828 30.3162C189.854 29.7485 188.75 29.462 187.516 29.462C186.276 29.462 185.162 29.7485 184.162 30.3162C183.162 30.8735 182.375 31.6443 181.808 32.6287C181.235 33.6026 180.953 34.7016 180.953 35.9203C180.953 37.1287 181.235 38.2276 181.808 39.212C182.375 40.2016 183.162 40.9776 184.162 41.5453C185.162 42.1026 186.276 42.3787 187.516 42.3787Z" fill="#6459C7"/>
<path d="M220.092 36.8577L217.008 39.9619V44.3161H214.613V27.5244H217.008V36.8994L226.133 27.5244H228.863L221.696 35.0661L229.321 44.3161H226.508L220.092 36.8577Z" fill="#6459C7"/>
<path d="M250.338 27.5244V44.3161H247.942V36.8369H238.296V44.3161H235.9V27.5244H238.296V34.7327H247.942V27.5244H250.338Z" fill="#6459C7"/>
<path d="M270.129 40.1077H261.191L259.358 44.3161H256.879L264.483 27.5244H266.858L274.483 44.3161H271.962L270.129 40.1077ZM269.274 38.1911L265.649 29.9619L262.045 38.1911H269.274Z" fill="#6459C7"/>
<path d="M295.458 27.5244V44.3161H293.499L283.416 31.7952V44.3161H281.02V27.5244H282.979L293.062 40.0452V27.5244H295.458Z" fill="#6459C7"/>
<path d="M307.874 29.6077H302.124V27.5244H316.019V29.6077H310.249V44.3161H307.874V29.6077Z" fill="#6459C7"/>
</svg>
